PathFileType	4	(X/Y/Z)	C:\Users\86182\Documents\cortex\Trimmed_M3_H14.trc
DataRate	CameraRate	NumFrames	NumMarkers	Units	OrigDataRate	OrigDataStartFrame	OrigNumFrames
100.00	100.00	       154	2	mm	100.00	361	       901
Frame#	Time	gripper			box			
		X1	Y1	Z1	X2	Y2	Z2	

361	3.600	268.04434	173.42345	292.68500	268.38287	171.25444	156.43970	
362	3.610	268.03259	173.42336	292.68481	268.36969	171.25352	156.46219	
363	3.620	268.02823	173.42000	292.67999	268.36255	171.24501	156.47646	
364	3.630	268.02930	173.41490	292.67328	268.36227	171.23201	156.48384	
365	3.640	268.03372	173.40927	292.66650	268.36771	171.21718	156.48575	
366	3.650	268.03976	173.40399	292.66071	268.37686	171.20209	156.48338	
367	3.660	268.04608	173.39969	292.65649	268.38748	171.18782	156.47813	
368	3.670	268.05191	173.39673	292.65405	268.39752	171.17583	156.47163	
369	3.680	268.05695	173.39523	292.65344	268.40607	171.16750	156.46553	
370	3.690	268.06125	173.39510	292.65451	268.41351	171.16341	156.46103	
371	3.700	268.06500	173.39606	292.65701	268.42065	171.16293	156.45880	
372	3.710	268.06839	173.39769	292.66058	268.42746	171.16420	156.45856	
373	3.720	268.07120	173.39940	292.66449	268.43289	171.16432	156.45880	
374	3.730	268.07281	173.40034	292.66763	268.43500	171.16003	156.45688	
375	3.740	268.07202	173.39931	292.66827	268.43130	171.14838	156.44908	
376	3.750	268.06693	173.39481	292.66388	268.41913	171.12677	156.43134	
377	3.760	268.05515	173.38504	292.65121	268.39600	171.09326	156.40021	
378	3.770	268.03403	173.36829	292.62671	268.36069	171.04739	156.35416	
379	3.780	268.00134	173.34340	292.58704	268.31396	170.99139	156.29475	
380	3.790	267.95651	173.31071	292.53070	268.25934	170.93089	156.22733	
381	3.800	267.90170	173.27281	292.45923	268.20297	170.87326	156.15958	
382	3.810	267.84232	173.23430	292.37823	268.15247	170.82442	156.09853	
383	3.820	267.78564	173.20006	292.29675	268.11368	170.78700	156.04852	
384	3.830	267.73837	173.17320	292.22498	268.08844	170.76100	156.01115	
385	3.840	267.70499	173.15422	292.17145	268.07471	170.74480	155.98627	
386	3.850	267.68710	173.14168	292.14056	268.06900	170.73598	155.97250	
387	3.860	267.68375	173.13354	292.13229	268.06827	170.73181	155.96776	
388	3.870	267.69217	173.12813	292.14294	268.07034	170.72997	155.96933	
389	3.880	267.70807	173.12445	292.16583	268.07385	170.72893	155.97429	
390	3.890	267.72586	173.12207	292.19244	268.07822	170.72784	155.98003	
391	3.900	267.73996	173.12068	292.21405	268.08350	170.72629	155.98453	
392	3.910	267.74634	173.12015	292.22440	268.08960	170.72427	155.98676	
393	3.920	267.74362	173.12061	292.22116	268.09601	170.72224	155.98662	
394	3.930	267.73309	173.12227	292.20618	268.10175	170.72086	155.98483	
395	3.940	267.71802	173.12512	292.18439	268.10547	170.72075	155.98267	
396	3.950	267.70270	173.12851	292.16211	268.10593	170.72246	155.98140	
397	3.960	267.69104	173.13133	292.14508	268.10269	170.72609	155.98180	
398	3.970	267.68570	173.13255	292.13708	268.09637	170.73106	155.98392	
399	3.980	267.68741	173.13164	292.13931	268.08844	170.73645	155.98729	
400	3.990	267.69528	173.12875	292.15045	268.08038	170.74129	155.99123	
401	4.000	267.70691	173.12473	292.16693	268.07364	170.74489	155.99490	
402	4.010	267.71869	173.12067	292.18362	268.06937	170.74678	155.99751	
403	4.020	267.72702	173.11768	292.19525	268.06836	170.74675	155.99841	
404	4.030	267.72937	173.11649	292.19815	268.07071	170.74490	155.99738	
405	4.040	267.72519	173.11732	292.19156	268.07587	170.74168	155.99466	
406	4.050	267.71594	173.12000	292.17786	268.08264	170.73778	155.99086	
407	4.060	267.70459	173.12375	292.16168	268.08951	170.73396	155.98689	
408	4.070	267.69470	173.12749	292.14804	268.09497	170.73103	155.98366	
409	4.080	267.68918	173.12997	292.14081	268.09769	170.72975	155.98196	
410	4.090	267.68964	173.13040	292.14172	268.09689	170.73050	155.98218	
411	4.100	267.69592	173.12862	292.15036	268.09299	170.73305	155.98415	
412	4.110	267.70612	173.12524	292.16394	268.08734	170.73653	155.98715	
413	4.120	267.71713	173.12151	292.17853	268.08176	170.73982	155.99023	
414	4.130	267.72580	173.11865	292.19019	268.07761	170.74217	155.99258	
415	4.140	267.72998	173.11745	292.19608	268.07538	170.74348	155.99380	
416	4.150	267.72867	173.11810	292.19476	268.07474	170.74416	155.99394	
417	4.160	267.72192	173.12051	292.18640	268.07495	170.74463	155.99335	
418	4.170	267.71100	173.12428	292.17285	268.07526	170.74524	155.99258	
419	4.180	267.69824	173.12862	292.15750	268.07501	170.74606	155.99217	
420	4.190	267.68689	173.13232	292.14444	268.07419	170.74692	155.99237	
421	4.200	267.68015	173.13432	292.13757	268.07297	170.74751	155.99313	
422	4.210	267.68008	173.13406	292.13922	268.07169	170.74763	155.99432	
423	4.220	267.68707	173.13156	292.14972	268.07065	170.74719	155.99571	
424	4.230	267.69958	173.12752	292.16721	268.07040	170.74609	155.99684	
425	4.240	267.71445	173.12302	292.18744	268.07159	170.74408	155.99719	
426	4.250	267.72763	173.11913	292.20499	268.07495	170.74098	155.99623	
427	4.260	267.73550	173.11649	292.21484	268.08072	170.73688	155.99361	
428	4.270	267.73608	173.11549	292.21426	268.08829	170.73227	155.98955	
429	4.280	267.72952	173.11636	292.20355	268.09616	170.72800	155.98489	
430	4.290	267.71786	173.11908	292.18597	268.10297	170.72464	155.98062	
431	4.300	267.70404	173.12320	292.16589	268.10797	170.72238	155.97733	
432	4.310	267.69113	173.12776	292.14777	268.11072	170.72133	155.97536	
433	4.320	267.68167	173.13165	292.13495	268.11078	170.72174	155.97498	
434	4.330	267.67737	173.13390	292.12952	268.10779	170.72385	155.97635	
435	4.340	267.67892	173.13408	292.13220	268.10168	170.72777	155.97948	
436	4.350	267.68567	173.13237	292.14203	268.09283	170.73328	155.98413	
437	4.360	267.69568	173.12956	292.15656	268.08237	170.73972	155.98969	
438	4.370	267.70593	173.12669	292.17181	268.07187	170.74617	155.99527	
439	4.380	267.71344	173.12462	292.18359	268.06284	170.75182	156.00000	
440	4.390	267.71600	173.12383	292.18829	268.05652	170.75595	156.00314	
441	4.400	267.71292	173.12437	292.18451	268.05386	170.75804	156.00423	
442	4.410	267.70526	173.12601	292.17377	268.05518	170.75774	156.00313	
443	4.420	267.69543	173.12822	292.15958	268.06015	170.75507	156.00017	
444	4.430	267.68619	173.13036	292.14609	268.06812	170.75027	155.99586	
445	4.440	267.67987	173.13174	292.13635	268.07806	170.74390	155.99077	
446	4.450	267.67770	173.13196	292.13196	268.08868	170.73679	155.98560	
447	4.460	267.67969	173.13097	292.13312	268.09811	170.73019	155.98119	
448	4.470	267.68503	173.12894	292.13885	268.10455	170.72549	155.97835	
449	4.480	267.69238	173.12636	292.14758	268.10699	170.72350	155.97745	
450	4.490	267.69995	173.12386	292.15698	268.10580	170.72408	155.97824	
451	4.500	267.70581	173.12212	292.16449	268.10226	170.72639	155.98000	
452	4.510	267.70844	173.12160	292.16803	268.09802	170.72939	155.98196	
453	4.520	267.70715	173.12254	292.16653	268.09451	170.73199	155.98347	
454	4.530	267.70236	173.12476	292.16052	268.09241	170.73372	155.98427	
455	4.540	267.69537	173.12770	292.15182	268.09122	170.73479	155.98462	
456	4.550	267.68808	173.13055	292.14288	268.08987	170.73595	155.98506	
457	4.560	267.68240	173.13260	292.13586	268.08759	170.73775	155.98598	
458	4.570	267.67984	173.13333	292.13239	268.08435	170.74026	155.98729	
459	4.580	267.68085	173.13264	292.13287	268.08075	170.74309	155.98871	
460	4.590	267.68475	173.13089	292.13641	268.07773	170.74557	155.98985	
461	4.600	267.68967	173.12877	292.14111	268.07590	170.74716	155.99043	
462	4.610	267.69333	173.12704	292.14468	268.07553	170.74770	155.99040	
463	4.620	267.69424	173.12622	292.14563	268.07654	170.74719	155.98979	
464	4.630	267.69250	173.12630	292.14392	268.07889	170.74564	155.98862	
465	4.640	267.68939	173.12683	292.14078	268.08240	170.74315	155.98701	
466	4.650	267.68658	173.12729	292.13782	268.08661	170.74004	155.98517	
467	4.660	267.68530	173.12730	292.13644	268.09100	170.73668	155.98337	
468	4.670	267.68613	173.12672	292.13727	268.09525	170.73329	155.98170	
469	4.680	267.68890	173.12553	292.14038	268.09924	170.72997	155.98024	
470	4.690	267.69305	173.12389	292.14520	268.10275	170.72693	155.97906	
471	4.700	267.69791	173.12204	292.15100	268.10498	170.72479	155.97847	
472	4.710	267.70273	173.12039	292.15686	268.10498	170.72437	155.97881	
473	4.720	267.70670	173.11937	292.16153	268.10242	170.72601	155.98013	
474	4.730	267.70868	173.11943	292.16367	268.09790	170.72934	155.98207	
475	4.740	267.70761	173.12083	292.16205	268.09277	170.73337	155.98410	
476	4.750	267.70325	173.12343	292.15665	268.08823	170.73717	155.98576	
477	4.760	267.69641	173.12675	292.14868	268.08456	170.74031	155.98700	
478	4.770	267.68878	173.13019	292.14008	268.08157	170.74289	155.98802	
479	4.780	267.68210	173.13315	292.13269	268.07886	170.74507	155.98909	
480	4.790	267.67761	173.13510	292.12781	268.07623	170.74695	155.99028	
481	4.800	267.67590	173.13567	292.12607	268.07376	170.74846	155.99159	
482	4.810	267.67688	173.13480	292.12732	268.07178	170.74940	155.99287	
483	4.820	267.67996	173.13286	292.13086	268.07043	170.74968	155.99402	
484	4.830	267.68402	173.13057	292.13550	268.06979	170.74934	155.99492	
485	4.840	267.68777	173.12860	292.13980	268.06989	170.74850	155.99548	
486	4.850	267.69022	173.12738	292.14264	268.07101	170.74707	155.99547	
487	4.860	267.69107	173.12692	292.14359	268.07355	170.74489	155.99458	
488	4.870	267.69067	173.12704	292.14294	268.07745	170.74207	155.99286	
489	4.880	267.68958	173.12747	292.14133	268.08209	170.73900	155.99057	
490	4.890	267.68839	173.12788	292.13956	268.08667	170.73613	155.98817	
491	4.900	267.68793	173.12793	292.13861	268.09067	170.73373	155.98598	
492	4.910	267.68906	173.12729	292.13940	268.09381	170.73190	155.98424	
493	4.920	267.69202	173.12602	292.14233	268.09576	170.73076	155.98315	
494	4.930	267.69635	173.12445	292.14691	268.09592	170.73068	155.98306	
495	4.940	267.70114	173.12294	292.15228	268.09378	170.73209	155.98410	
496	4.950	267.70544	173.12181	292.15735	268.08926	170.73518	155.98625	
497	4.960	267.70831	173.12123	292.16095	268.08295	170.73970	155.98911	
498	4.970	267.70908	173.12129	292.16214	268.07599	170.74489	155.99210	
499	4.980	267.70776	173.12190	292.16071	268.06967	170.74979	155.99469	
500	4.990	267.70517	173.12276	292.15741	268.06476	170.75366	155.99663	
501	5.000	267.70236	173.12347	292.15356	268.06168	170.75613	155.99780	
502	5.010	267.69998	173.12392	292.15009	268.06070	170.75705	155.99811	
503	5.020	267.69824	173.12410	292.14734	268.06192	170.75636	155.99739	
504	5.030	267.69699	173.12411	292.14532	268.06537	170.75414	155.99564	
505	5.040	267.69589	173.12405	292.14374	268.07059	170.75067	155.99307	
506	5.050	267.69485	173.12398	292.14243	268.07681	170.74641	155.99008	
507	5.060	267.69391	173.12396	292.14145	268.08325	170.74187	155.98711	
508	5.070	267.69315	173.12404	292.14081	268.08908	170.73759	155.98454	
509	5.080	267.69244	173.12424	292.14041	268.09348	170.73418	155.98277	
510	5.090	267.69147	173.12462	292.13992	268.09570	170.73213	155.98210	
511	5.100	267.69012	173.12531	292.13931	268.09552	170.73172	155.98264	
512	5.110	267.68878	173.12624	292.13885	268.09317	170.73279	155.98419	
513	5.120	267.68814	173.12708	292.13919	268.08932	170.73488	155.98645	
514	5.130	267.68896	173.12735	292.14099	268.08444	170.73766	155.98923	
